<?xml version="1.0" encoding="utf-8"?>
<!-- Generator: Adobe Illustrator 17.0.0, SVG Export Plug-In . SVG Version: 6.00 Build 0)  -->
<!DOCTYPE svg PUBLIC "-//W3C//DTD SVG 1.1//EN" "http://www.w3.org/Graphics/SVG/1.1/DTD/svg11.dtd">
<svg xmlns="http://www.w3.org/2000/svg" xmlns:xlink="http://www.w3.org/1999/xlink" version="1.1" id="Layer_1" x="0px" y="0px" width="26px" height="26px" viewBox="0 0 26 26" enable-background="new 0 0 26 26" xml:space="preserve">


<g>
	<path fill="#000000" d="M13,2c6.065,0,11,4.935,11,11s-4.935,11-11,11S2,19.065,2,13S6.935,2,13,2 M13,19c3.308,0,6-2.692,6-6   s-2.692-6-6-6s-6,2.692-6,6S9.692,19,13,19 M13,0C5.82,0,0,5.82,0,13s5.82,13,13,13s13-5.82,13-13S20.18,0,13,0L13,0z M13,17   c-2.209,0-4-1.791-4-4c0-2.209,1.791-4,4-4s4,1.791,4,4C17,15.209,15.209,17,13,17L13,17z"/>
</g>
<g>
	<path fill="#000000" d="M15.878,10.232l6.485-6.236C19.999,1.537,16.682,0,13,0v9C14.133,9,15.151,9.475,15.878,10.232z"/>
</g>
<line fill="none" stroke="#000000" stroke-width="2" stroke-miterlimit="10" x1="16" y1="16" x2="21.5" y2="21.5"/>
<circle fill="#000000" cx="18" cy="9" r="1"/>
<circle fill="#000000" cx="22" cy="9" r="1"/>
<circle fill="#000000" cx="20" cy="7" r="1"/>
<circle fill="#000000" cx="20" cy="11" r="1"/>
<circle fill="#000000" cx="20" cy="15" r="1"/>
<circle fill="#000000" cx="20" cy="19" r="1"/>
<circle fill="#000000" cx="24" cy="11" r="1"/>
<circle fill="#000000" cx="22" cy="13" r="1"/>
<circle fill="#000000" cx="22" cy="17" r="1"/>
<circle fill="#000000" cx="18" cy="17" r="1"/>
<circle fill="#000000" cx="24" cy="15" r="1"/>
</svg>
