<?xml version="1.0" encoding="utf-8"?>
<!-- Generator: Adobe Illustrator 17.1.0, SVG Export Plug-In . SVG Version: 6.00 Build 0)  -->
<!DOCTYPE svg PUBLIC "-//W3C//DTD SVG 1.0//EN" "http://www.w3.org/TR/2001/REC-SVG-20010904/DTD/svg10.dtd">
<svg xmlns="http://www.w3.org/2000/svg" xmlns:xlink="http://www.w3.org/1999/xlink" version="1.0" id="Layer_1" x="0px" y="0px" width="26px" height="26px" viewBox="0 0 26 26" style="enable-background:new 0 0 26 26;" xml:space="preserve">
<path style="fill:#000000" d="M8,1c0-0.6,0.4-1,1-1h8c0.6,0,1,0.4,1,1v6c0,0.6-0.4,1-1,1H9C8.4,8,8,7.6,8,7V1z"/>
<path style="fill:#000000" d="M1,26c-0.6,0-1-0.4-1-1v-4c0-0.6,0.4-1,1-1h5c0.6,0,1,0.4,1,1v4c0,0.6-0.4,1-1,1H1z"/>
<path style="fill:#000000" d="M10,26c-0.6,0-1-0.4-1-1v-4c0-0.6,0.4-1,1-1h6c0.6,0,1,0.4,1,1v4c0,0.6-0.4,1-1,1H10z"/>
<path style="fill:#000000" d="M20,26c-0.6,0-1-0.4-1-1v-4c0-0.6,0.4-1,1-1h5c0.6,0,1,0.4,1,1v4c0,0.6-0.4,1-1,1H20z"/>
<rect style="fill:none;" width="26" height="26"/>
<line style="fill:none;stroke:#000000;stroke-width:2;stroke-linecap:round;stroke-linejoin:round;stroke-miterlimit:10" x1="13" y1="7" x2="13" y2="21"/>
<line style="fill:none;stroke:#000000;stroke-width:2;stroke-linecap:round;stroke-linejoin:round;stroke-miterlimit:10" x1="23" y1="13" x2="23" y2="21"/>
<line style="fill:none;stroke:#000000;stroke-width:2;stroke-linecap:round;stroke-linejoin:round;stroke-miterlimit:10" x1="3" y1="13" x2="3" y2="21"/>
<line style="fill:none;stroke:#000000;stroke-width:2;stroke-linecap:round;stroke-linejoin:round;stroke-miterlimit:10" x1="23" y1="13" x2="3" y2="13"/>
<path style="fill:#000000" d="M8,1c0-0.6,0.4-1,1-1h8c0.6,0,1,0.4,1,1v6c0,0.6-0.4,1-1,1H9C8.4,8,8,7.6,8,7V1z"/>
<path style="fill:#000000" d="M1,26c-0.6,0-1-0.4-1-1v-4c0-0.6,0.4-1,1-1h5c0.6,0,1,0.4,1,1v4c0,0.6-0.4,1-1,1H1z"/>
<path style="fill:#000000" d="M10,26c-0.6,0-1-0.4-1-1v-4c0-0.6,0.4-1,1-1h6c0.6,0,1,0.4,1,1v4c0,0.6-0.4,1-1,1H10z"/>
<path style="fill:#000000" d="M20,26c-0.6,0-1-0.4-1-1v-4c0-0.6,0.4-1,1-1h5c0.6,0,1,0.4,1,1v4c0,0.6-0.4,1-1,1H20z"/>
<rect style="fill:none;" width="26" height="26"/>
<line style="fill:none;stroke:#000000;stroke-width:2;stroke-linecap:round;stroke-linejoin:round;stroke-miterlimit:10" x1="13" y1="7" x2="13" y2="21"/>
<line style="fill:none;stroke:#000000;stroke-width:2;stroke-linecap:round;stroke-linejoin:round;stroke-miterlimit:10" x1="23" y1="13" x2="23" y2="21"/>
<line style="fill:none;stroke:#000000;stroke-width:2;stroke-linecap:round;stroke-linejoin:round;stroke-miterlimit:10" x1="3" y1="13" x2="3" y2="21"/>
<line style="fill:none;stroke:#000000;stroke-width:2;stroke-linecap:round;stroke-linejoin:round;stroke-miterlimit:10" x1="23" y1="13" x2="3" y2="13"/>
</svg>
