<?xml version="1.0" encoding="utf-8"?>
<!-- Generator: Adobe Illustrator 17.0.2, SVG Export Plug-In . SVG Version: 6.00 Build 0)  -->
<!DOCTYPE svg PUBLIC "-//W3C//DTD SVG 1.1//EN" "http://www.w3.org/Graphics/SVG/1.1/DTD/svg11.dtd">
<svg xmlns="http://www.w3.org/2000/svg" xmlns:xlink="http://www.w3.org/1999/xlink" version="1.1" id="Layer_1" x="0px" y="0px" width="26px" height="26px" viewBox="0 0 26 26" enable-background="new 0 0 26 26" xml:space="preserve">
<path fill="#000000" d="M1,26c-0.551,0-1-0.449-1-1v-8c0-0.551,0.449-1,1-1h8c0.552,0,1,0.449,1,1v8c0,0.551-0.448,1-1,1H1z"/>
<path fill="#000000" d="M16.279,5.674c-0.371-0.371-0.371-0.977,0-1.349l4.047-4.047c0.371-0.371,0.977-0.371,1.349,0l4.047,4.047  c0.372,0.372,0.371,0.977,0,1.349l-4.047,4.047c-0.371,0.371-0.977,0.372-1.349,0L16.279,5.674z"/>
<line fill="none" stroke="#000000" stroke-width="2" stroke-linecap="round" stroke-linejoin="round" stroke-miterlimit="10" x1="5" y1="16" x2="5" y2="10"/>
<polyline fill="none" stroke="#000000" stroke-width="2" stroke-linecap="round" stroke-linejoin="round" stroke-miterlimit="10" points="  6.97,11.97 5,10 3.03,11.97 "/>
<polyline fill="none" stroke="#000000" stroke-width="2" stroke-linecap="round" stroke-linejoin="round" stroke-miterlimit="10" points="  15.03,6.97 17,5 15.03,3.03 "/>
<line fill="none" stroke="#000000" stroke-width="2" stroke-linecap="round" stroke-linejoin="round" stroke-miterlimit="10" x1="10" y1="5" x2="17" y2="5"/>
<g>
	<path fill="#000000" d="M5,2c1.654,0,3,1.346,3,3S6.654,8,5,8S2,6.654,2,5S3.346,2,5,2 M5,0C2.239,0,0,2.239,0,5s2.239,5,5,5   s5-2.239,5-5S7.761,0,5,0L5,0z"/>
</g>
<circle fill="#000000" cx="21" cy="21" r="5"/>
<polyline fill="none" stroke="#000000" stroke-width="2" stroke-linecap="round" stroke-linejoin="round" stroke-miterlimit="10" points="  19.03,14.03 21,16 22.97,14.03 "/>
<line fill="none" stroke="#000000" stroke-width="2" stroke-linecap="round" stroke-linejoin="round" stroke-miterlimit="10" x1="21" y1="9" x2="21" y2="16"/>
</svg>
