<?xml version="1.0" encoding="utf-8"?>
<!-- Generator: Adobe Illustrator 17.1.0, SVG Export Plug-In . SVG Version: 6.00 Build 0)  -->
<!DOCTYPE svg PUBLIC "-//W3C//DTD SVG 1.0//EN" "http://www.w3.org/TR/2001/REC-SVG-20010904/DTD/svg10.dtd">
<svg xmlns="http://www.w3.org/2000/svg" xmlns:xlink="http://www.w3.org/1999/xlink" version="1.0" id="Layer_1" x="0px" y="0px" width="26px" height="26px" viewBox="0 0 26 26" style="enable-background:new 0 0 26 26;" xml:space="preserve">
<rect style="fill:none;" width="26" height="26"/>
<path style="fill:none;stroke:#000000;stroke-width:2;stroke-linecap:round;stroke-linejoin:round;stroke-miterlimit:10" d="  M20,7.8V22c0,2-1,3-3,3H7c-2,0-3-1-3-3V8"/>
<path style="fill:none;stroke:#000000;stroke-width:2;stroke-linecap:round;stroke-linejoin:round;stroke-miterlimit:10" d="  M20,11.6c0,0,0.7-1.6,3-1.6c1.6,0,2,1.2,2,3c0,1.2-0.7,6-4,6h-1"/>
<path style="fill:none;stroke:#000000;stroke-width:2;stroke-linecap:round;stroke-linejoin:round;stroke-miterlimit:10" d="M18,2  c-0.6,0-1.2,0.2-1.7,0.5C15.8,2.2,15.2,2,14.5,2c-0.5,0-0.9,0.1-1.3,0.3C12.5,1.5,11.6,1,10.5,1C9.3,1,8.3,1.6,7.6,2.5  C7.2,2.2,6.6,2,6,2C4.3,2,3,3.3,3,5s1.3,3,3,3c0.8,0,1.6-0.4,2.2-0.9C8.8,7.6,9.6,8,10.5,8c0.5,0,0.9-0.1,1.3-0.3  c3,0-3.1,9.3,2.7,9.3c5.5,0-0.3-9.2,2.6-9.2C17.4,7.9,17.7,8,18,8c1.7,0,3-1.3,3-3S19.7,2,18,2z"/>
<path style="fill:#000000" d="M16,25h-5c0,0-4,0.3-4-4s0-10,0-10h5.4c0,0-2.2,6,2.1,6s2-6,2-6H20c0,0,0,5.6,0,10  C20,25.4,16,25,16,25z"/>
</svg>
