<?xml version="1.0" encoding="utf-8"?>
<!-- Generator: Adobe Illustrator 15.0.0, SVG Export Plug-In . SVG Version: 6.00 Build 0)  -->
<!DOCTYPE svg PUBLIC "-//W3C//DTD SVG 1.1//EN" "http://www.w3.org/Graphics/SVG/1.1/DTD/svg11.dtd">
<svg xmlns="http://www.w3.org/2000/svg" xmlns:xlink="http://www.w3.org/1999/xlink" version="1.1" id="Layer_1" x="0px" y="0px" width="26px" height="26px" viewBox="0 0 26 26" enable-background="new 0 0 26 26" xml:space="preserve">
<g>
	<g>
		<path fill="#000000" d="M22.025,11.043l2.375,1.014v0.989c-1.018,0.573-2.036,1.576-2.036,3.076s1.019,2.503,2.036,3.076v2.322    L1.6,23.309v-11.42l1.297-0.807L22.025,11.043 M22.352,9.442L2.438,9.483L0,11v13.037c0,0.524,0.407,0.925,0.922,0.925    c0.025,0,0.052-0.001,0.078-0.003l24-1.881c0.551-0.043,1-0.527,1-1.078v-3.851c0,0-2.036-0.57-2.036-2.027S26,14.095,26,14.095    V11L22.352,9.442L22.352,9.442z"/>
	</g>
</g>

<g>
	<g>
		<path fill="#000000" d="M7.93,4.78L18.406,9.4H2.416C3.286,7.896,4.941,5.901,7.93,4.78 M8,3.063C1.402,5.177,0,11,0,11h26    L8,3.063L8,3.063z"/>
	</g>
</g>
<ellipse fill="#000000" cx="6.575" cy="14.762" rx="2.477" ry="2.233"/>
<ellipse fill="#000000" cx="14.842" cy="20.983" rx="2.437" ry="2.461"/>
<ellipse fill="#000000" cx="16.334" cy="11.831" rx="2.169" ry="2.045"/>
<ellipse fill="#000000" cx="11.575" cy="16.352" rx="1.489" ry="1.403"/>
<ellipse fill="#000000" cx="20.738" cy="18.688" rx="1.489" ry="1.403"/>
<ellipse fill="#000000" cx="4.688" cy="20.655" rx="1.489" ry="1.403"/>
<ellipse fill="#000000" cx="10.818" cy="6.404" rx="2.099" ry="1.129"/>
</svg>
