<?xml version="1.0" encoding="utf-8"?>
<!-- Generator: Adobe Illustrator 18.1.1, SVG Export Plug-In . SVG Version: 6.00 Build 0)  -->
<svg version="1.1" id="Layer_1" xmlns="http://www.w3.org/2000/svg" xmlns:xlink="http://www.w3.org/1999/xlink" x="0px" y="0px"
	 viewBox="0 0 26 26" enable-background="new 0 0 26 26" xml:space="preserve">
<path fill="none" stroke="#000000" stroke-width="2" stroke-linecap="round" stroke-linejoin="round" stroke-miterlimit="10" d="
	M15,7V2l-1-1l-1.5,1L11,1.5V7c0,3.8-10,4.1-10,11c0,3.3,2.7,6,6,6c0.9,0,1.7-0.2,2.4-0.5c0.9,0.9,2.2,1.5,3.6,1.5s2.7-0.6,3.6-1.5
	c0.7,0.3,1.6,0.5,2.4,0.5c3.3,0,6-2.7,6-6C25,11,15,10.4,15,7z"/>
<path fill="none" stroke="#000000" stroke-width="2" stroke-linecap="round" stroke-miterlimit="10" d="M15,12c0,0,3,3.1,3,8
	c0,2.8-2.2,5-5,5"/>
<path fill="none" stroke="#000000" stroke-width="2" stroke-linecap="round" stroke-miterlimit="10" d="M9,15c0,0-1,2.3-1,5
	c0,2.8,2.2,5,5,5"/>
</svg>
