<?xml version="1.0" encoding="utf-8"?>
<!-- Generator: Adobe Illustrator 18.1.1, SVG Export Plug-In . SVG Version: 6.00 Build 0)  -->
<svg version="1.1" id="Layer_1" xmlns="http://www.w3.org/2000/svg" xmlns:xlink="http://www.w3.org/1999/xlink" x="0px" y="0px"
	 viewBox="0 0 26 26" enable-background="new 0 0 26 26" xml:space="preserve">
<path d="M18.8,12.4C18.6,12.2,18.3,12,18,12H8c-0.3,0-0.6,0.2-0.8,0.4s-0.2,0.6-0.1,0.9l5,12c0.2,0.4,0.5,0.6,0.9,0.6
	s0.8-0.2,0.9-0.6l5-12C19.1,13.1,19,12.7,18.8,12.4z"/>
<path fill="none" stroke="#000000" stroke-width="2" stroke-miterlimit="10" d="M9.1,5.9C9,5.6,9,5.3,9,5c0-2.2,1.8-4,4-4s4,1.8,4,4
	c0,0.3,0,0.6-0.1,0.9"/>
<path fill="none" stroke="#000000" stroke-width="2" stroke-linecap="round" stroke-miterlimit="10" d="M10,14c-2.2,0-4-1.8-4-4
	s1.8-4,4-4c2,0,3.7,1.5,4,3.4"/>
<path fill="none" stroke="#000000" stroke-width="2" stroke-linecap="round" stroke-miterlimit="10" d="M13.2,7.2
	C13.9,6.5,14.9,6,16,6c2.2,0,4,1.8,4,4s-1.8,4-4,4"/>
</svg>
