<?xml version="1.0" encoding="utf-8"?>
<!-- Generator: Adobe Illustrator 15.0.0, SVG Export Plug-In . SVG Version: 6.00 Build 0)  -->
<!DOCTYPE svg PUBLIC "-//W3C//DTD SVG 1.1//EN" "http://www.w3.org/Graphics/SVG/1.1/DTD/svg11.dtd">
<svg xmlns="http://www.w3.org/2000/svg" xmlns:xlink="http://www.w3.org/1999/xlink" version="1.1" id="Layer_1" x="0px" y="0px" width="26px" height="26px" viewBox="0 0 26 26" enable-background="new 0 0 26 26" xml:space="preserve">
<path fill="#000000" d="M17,25c0,0.551-0.449,1-1,1H9c-0.551,0-1-0.449-1-1v-3c0-0.551,0.449-1,1-1h7c0.551,0,1,0.449,1,1V25z"/>

<path fill="none" stroke="#000000" stroke-width="2" stroke-linecap="round" stroke-linejoin="round" stroke-miterlimit="10" d="  M7,15c0,0,0,0-3,0s-3,2-3,3s2,4,6,4"/>
<path fill="#000000" d="M24,13c-1.454,0,0.118,4-5.012,4c-2.402,0-0.785,5-0.785,5c7.488,0,6.042-7.995,7.797-9H24z"/>
<g>
	<path fill="#000000" d="M17.989,12c-1.465-1.659-3.382-2.813-5.489-2.813S8.476,10.341,7.011,12H17.989z"/>
	<path fill="#000000" d="M6.224,13c-1.265,1.81-2.036,3.996-2.036,5.953c0,4.315,3.721,6.859,8.313,6.859s8.313-2.544,8.313-6.859   c0-1.957-0.771-4.144-2.036-5.953H6.224z"/>
</g>
<circle fill="#000000" cx="12.5" cy="7.5" r="1.5"/>
</svg>
